<svg width="213" height="213" viewBox="0 0 213 213" fill="none" xmlns="http://www.w3.org/2000/svg">
<path d="M83.45 6.48002C62.7981 22.2917 43.6017 39.9186 26.09 59.15C30.88 68.43 33.21 73.03 37.8 82.15C37.8694 82.244 37.9297 82.3445 37.98 82.45C48 102.59 57.91 122.8 67.81 143C71.57 150.68 76.39 155.21 80.7 155.16C84.55 155.16 88.82 151.53 92.49 145.27C95.94 152.09 97.67 155.5 101.16 162.27C98.6892 165.398 95.5472 167.932 91.9662 169.684C88.3851 171.435 84.4564 172.36 80.47 172.39C67.3 172.44 57.26 162.39 52.16 151.01C39.66 125.01 27.16 99.1 14.25 73.32C11.6233 76.64 9.03333 80.0167 6.48 83.45C-2.16 96.85 -2.16 115.69 6.48 129.09C28.6819 158.002 54.5679 183.888 83.48 206.09C96.88 214.73 115.72 214.73 129.12 206.09C158.032 183.888 183.918 158.002 206.12 129.09C214.76 115.68 214.75 96.86 206.12 83.45C203.56 80.01 200.97 76.66 198.35 73.36C185.47 99.15 172.94 125.1 160.43 151.07C155.32 162.42 145.28 172.49 132.11 172.44C120.79 171.93 111.37 164.64 105.81 155.09C105.805 155.116 105.805 155.144 105.81 155.17C102.15 148.02 100.33 144.45 96.72 137.31L94.72 133.31C94.6321 133.206 94.5519 133.096 94.48 132.98C93.8 131.62 93.48 130.98 92.77 129.6C86.9233 117.993 81.1267 106.41 75.38 94.85C71.9838 89.1949 70.1577 82.7362 70.09 76.14C70.08 75.9535 70.08 75.7666 70.09 75.58C70.21 55.83 86.75 40.31 106.26 40.3C126.03 40.3 142.62 56.13 142.43 76.14C142.43 76.31 142.43 76.48 142.43 76.65C142.279 82.8117 140.599 88.8392 137.54 94.19C131.54 105.643 125.573 117.1 119.64 128.56C115.88 121.17 114.01 117.48 110.28 110.12C115.07 100.57 117.45 95.79 122.28 86.22C122.37 86.06 122.45 85.9 122.55 85.74C124.222 82.8624 125.115 79.5982 125.14 76.27C125.14 76.15 125.14 76.03 125.14 75.91C125.092 70.9054 123.058 66.1247 119.486 62.6196C115.913 59.1146 111.095 57.1723 106.09 57.22C101.085 57.2678 96.3047 59.3016 92.7996 62.8742C89.2946 66.4468 87.3523 71.2654 87.4 76.27C87.4 76.41 87.4 76.54 87.4 76.67C87.4909 80.0288 88.4709 83.3035 90.24 86.16C90.3781 86.3835 90.5049 86.6138 90.62 86.85C94.41 94.38 96.28 98.14 100.04 105.65H99.96C105.14 115.89 110.333 126.127 115.54 136.36V136.43C116.83 139.01 117.47 140.29 118.77 142.87L118.87 143.05C122.73 150.54 127.61 155.05 131.87 155.11C136.13 155.17 141.01 150.63 144.77 142.96C158.52 114.96 172.27 86.9 186.5 59.1C168.976 39.8783 149.762 22.2677 129.09 6.48002C122.232 2.2436 114.331 -0.000244141 106.27 -0.000244141C98.2093 -0.000244141 90.3077 2.2436 83.45 6.48002" fill="url(#paint0_linear_3_67)"/>
<defs>
<linearGradient id="paint0_linear_3_67" x1="206.798" y1="106.285" x2="0" y2="106.285" gradientUnits="userSpaceOnUse">
<stop stop-color="#00E6E3"/>
<stop offset="1" stop-color="#00FF68"/>
</linearGradient>
</defs>
</svg>
